<svg width="512" height="512" xmlns="http://www.w3.org/2000/svg">

 <g>
  <title>background</title>
  <rect fill="none" id="canvas_background" height="402" width="582" y="-1" x="-1"/>
 </g>
 <g>
  <title>Layer 1</title>
  <g id="svg_1">
   <g id="svg_2">
    <path fill="#ffffff" id="svg_3" d="m467.563,490.75l-28.469,-341.492c-0.968,-11.688 -11.359,-21.258 -23.093,-21.258l-57.25,0c-1.922,-12.375 -4.797,-26.367 -9.078,-40.438c-17.438,-57.289 -49.828,-87.562 -93.673,-87.562c-43.844,0 -76.234,30.273 -93.672,87.562c-4.289,14.07 -7.156,28.062 -9.086,40.438l-57.242,0c-11.734,0 -22.133,9.57 -23.102,21.258l-28.46,341.492c-0.977,11.688 7.828,21.25 19.562,21.25l384,0c11.735,0 20.532,-9.562 19.563,-21.25zm-284.828,-396.977c14.633,-48.07 39.281,-72.438 73.266,-72.438c33.891,0 58.5,24.242 73.157,72.055c3.625,11.852 6.172,23.781 7.969,34.609l-162.259,0c1.773,-10.694 4.289,-22.483 7.867,-34.226zm-88.578,57.258c0.054,-0.633 1.203,-1.695 1.843,-1.695l54.594,0c-1.156,12.352 -1.25,20.492 -1.258,21.234c0,0.031 0,0.062 0,0.094c0,5.891 4.773,10.672 10.664,10.672c5.859,0 10.609,-4.727 10.664,-10.578c0,-0.18 0.109,-8.617 1.383,-21.422l167.891,0c1.281,12.797 1.391,21.25 1.406,21.422c0.047,5.852 4.797,10.578 10.656,10.578c5.891,0 10.656,-4.781 10.656,-10.672c0,-0.031 0,-0.062 0,-0.094c0,-0.742 -0.094,-8.883 -1.25,-21.234l54.594,0c0.625,0 1.781,1.062 1.844,1.695l4.469,53.609l-0.422,-0.844l-33.078,16.555c-2.219,1.117 -7.297,1.117 -9.531,0.008l-23.578,-11.797c-8.297,-4.148 -20.328,-4.148 -28.625,0l-23.578,11.797c-2.234,1.109 -7.312,1.109 -9.547,0l-23.586,-11.797c-8.289,-4.148 -20.329,-4.148 -28.618,0l-23.586,11.797c-2.227,1.109 -7.312,1.109 -9.539,0l-23.586,-11.797c-8.297,-4.148 -20.328,-4.148 -28.625,0l-23.586,11.797c-2.234,1.117 -7.336,1.117 -9.57,0.008l-33.172,-16.5l-0.398,0.797l4.469,-53.633zm-6.297,75.555l25.898,12.883c4.133,2.055 9.203,3.086 14.273,3.086c5.086,0 10.188,-1.039 14.336,-3.117l23.586,-11.797c2.234,-1.109 7.312,-1.109 9.547,0l23.578,11.797c8.297,4.148 20.336,4.148 28.625,0l23.586,-11.797c2.227,-1.109 7.313,-1.109 9.54,0l23.578,11.797c8.312,4.148 20.344,4.148 28.625,0l23.594,-11.797c2.219,-1.109 7.312,-1.109 9.531,0l23.594,11.797c8.297,4.148 20.328,4.141 28.625,-0.008l25.75,-12.898l19.359,232.125l-374.969,0l19.344,-232.071zm-22.008,264.07l0.891,-10.656l378.508,0l0.906,10.656l-380.305,0z"/>
   </g>
   <path id="svg_21" d="m131.5,139.85" opacity="0.5" stroke-width="1.5" fill="#ffffff"/>
  </g>
  <g id="svg_4"/>
  <g id="svg_5"/>
  <g id="svg_6"/>
  <g id="svg_7"/>
  <g id="svg_8"/>
  <g id="svg_9"/>
  <g id="svg_10"/>
  <g id="svg_11"/>
  <g id="svg_12"/>
  <g id="svg_13"/>
  <g id="svg_14"/>
  <g id="svg_15"/>
  <g id="svg_16"/>
  <g id="svg_17"/>
  <g id="svg_18"/>
  <polyline stroke-linecap="round" id="svg_19" points="302.5,133.85 302.5,133.85 " stroke-width="1.5" stroke="#000" fill="none"/>
  <polyline stroke-linecap="round" id="svg_20" points="229.5,190.85 228.5,190.85 " stroke-width="1.5" fill="white"/>
 </g>
</svg>