<svg height="473pt" viewBox="0 -100 473.984 473" width="473pt" xmlns="http://www.w3.org/2000/svg"><path d="m368.195312 16.621094c-53.652343 2.652344-95.679687 47.777344-95.679687 102.742187v54.167969c0 16.078125-13.890625 28.917969-30.246094 27.390625-13.910156-1.308594-24.800781-14.046875-24.800781-29v-54.691406c0-57.214844-47.890625-103.492188-105.78125-100.609375-53.65625 2.644531-95.6875 47.777344-95.6875 102.742187v25.519531c0 20.183594 16.421875 36.609376 36.609375 36.609376s36.605469-16.421876 36.605469-36.609376v-27.65625c0-16.074218 13.910156-28.921874 30.25-27.390624 13.902344 1.308593 24.796875 14.042968 24.796875 28.996093v52.554688c0 54.964843 42.027343 100.097656 95.683593 102.75 1.695313.082031 3.375.121093 5.050782.121093 55.542968 0 100.734375-45.1875 100.734375-100.734374v-56.292969c0-16.070313 13.902343-28.921875 30.246093-27.390625 13.90625 1.308594 24.796876 14.042968 24.796876 28.996094v45.375c0 20.183593 16.417968 36.609374 36.605468 36.609374 20.183594 0 36.605469-16.421874 36.605469-36.609374v-46.980469c0-57.214844-47.894531-103.480469-105.789063-100.609375zm0 0" fill="#e6e7e8"/><path d="m228.992188 254.261719c-1.613282 0-3.222657-.039063-4.851563-.117188-51.523437-2.550781-91.882813-45.925781-91.878906-98.753906v-52.550781c0-16.992188-12.484375-31.480469-28.421875-32.980469-1.042969-.097656-2.078125-.148437-3.105469-.148437-17.375 0-31.515625 14.140624-31.515625 31.519531v27.652343c0 17.980469-14.625 32.609376-32.605469 32.609376s-32.609375-14.628907-32.609375-32.609376l-.003906-25.519531c0-52.832031 40.359375-96.207031 91.886719-98.75 1.625-.082031 3.242187-.121093 4.847656-.121093 53.34375 0 96.742187 43.394531 96.742187 96.734374l-.003906 54.695313c0 16.992187 12.484375 31.480469 28.421875 32.980469 1.042969.097656 2.078125.144531 3.097657.144531 17.378906 0 31.519531-14.140625 31.519531-31.519531v-54.164063c0-52.824219 40.359375-96.199219 91.878906-98.746093 1.625-.082032 3.25-.121094 4.851563-.121094 53.335937 0 96.738281 43.394531 96.738281 96.734375v46.980469c0 17.980468-14.628907 32.609374-32.609375 32.609374-17.976563 0-32.605469-14.628906-32.605469-32.609374v-45.371094c0-16.992188-12.484375-31.480469-28.425781-32.980469-1.039063-.097656-2.078125-.148437-3.105469-.148437-17.375 0-31.515625 14.140624-31.515625 31.519531v56.296875c.007812 53.339844-43.382812 96.734375-96.726562 96.734375zm0 0" fill="#fff"/><path d="m357.246094 16.496094c-1.601563 0-3.226563.039062-4.851563.121094-51.523437 2.546874-91.882812 45.921874-91.882812 98.746093v54.164063c0 17.378906-14.140625 31.519531-31.519531 31.519531-1.023438 0-2.054688-.046875-3.097657-.144531-15.9375-1.5-28.421875-15.988282-28.421875-32.980469v-11.988281c0-.003906 0-.007813 0-.011719v-42.707031c-.011718-53.332032-43.402344-96.714844-96.738281-96.714844-1.601563 0-3.222656.039062-4.847656.121094-51.511719 2.535156-91.867188 45.886718-91.886719 98.703125v13.5625c0 17.980469 14.628906 32.609375 32.609375 32.609375s32.605469-14.628906 32.605469-32.609375v-27.652344c0-17.378906 14.140625-31.519531 31.515625-31.519531 1.027343 0 2.0625.050781 3.105469.148437 15.9375 1.5 28.421874 15.984375 28.421874 32.980469v52.554688c-.003906 52.832031 40.355469 96.210937 91.878907 98.753906 1.628906.078125 3.242187.121094 4.855469.121094 53.34375 0 96.734374-43.398438 96.734374-96.738282v-56.304687c0-17.378907 14.140626-31.519531 31.515626-31.519531 1.027343 0 2.0625.050781 3.105468.148437 15.941406 1.5 28.425782 15.984375 28.425782 32.980469v45.375c0 17.980468 14.625 32.609375 32.605468 32.609375 17.980469 0 32.609375-14.628907 32.609375-32.609375v-34.980469c-.003906-53.34375-43.398437-96.738281-96.742187-96.738281zm0 0" fill="#ffd7e5"/><path d="m225.289062 230.882812c-39.453124-1.949218-69.742187-35.988281-69.742187-75.488281v-52.558593c0-28.523438-21.125-53.496094-49.527344-56.167969-32.585937-3.070313-60.09375 22.59375-60.09375 54.5625v27.652343c0 5.144532-4.171875 9.316407-9.316406 9.316407s-9.316406-4.171875-9.316406-9.316407v-25.523437c0-39.5 30.292969-73.535156 69.742187-75.484375 42.171875-2.078125 77.144532 31.628906 77.144532 73.351562v54.6875c0 28.53125 21.128906 53.496094 49.53125 56.167969 32.589843 3.070313 60.097656-22.59375 60.097656-54.5625v-54.164062c0-39.5 30.289062-73.535157 69.738281-75.484375 42.171875-2.082032 77.148437 31.628906 77.148437 73.351562v46.980469c0 5.144531-4.171874 9.316406-9.316406 9.316406-5.144531 0-9.316406-4.171875-9.316406-9.316406v-45.363281c0-28.523438-21.125-53.496094-49.527344-56.167969-32.585937-3.066406-60.09375 22.59375-60.09375 54.5625v56.296875c0 41.722656-34.980468 75.4375-77.152344 73.351562zm0 0" fill="#fa759e"/><g fill="#3a2c60"><path d="m352.195312.621094c-53.652343 2.652344-95.679687 47.777344-95.679687 102.742187v54.167969c0 16.078125-13.890625 28.917969-30.246094 27.390625-13.910156-1.308594-24.800781-14.046875-24.800781-29v-54.691406c0-57.214844-47.890625-103.492188-105.78125-100.609375-53.65625 2.644531-95.6875 47.777344-95.6875 102.742187v25.519531c0 20.183594 16.421875 36.609376 36.609375 36.609376s36.605469-16.421876 36.605469-36.609376v-27.65625c0-16.074218 13.910156-28.921874 30.25-27.390624 13.902344 1.308593 24.796875 14.042968 24.796875 28.996093v52.554688c0 54.964843 42.027343 100.097656 95.683593 102.75 1.695313.082031 3.375.121093 5.050782.121093 55.542968 0 100.734375-45.1875 100.734375-100.734374v-56.292969c0-16.070313 13.902343-28.921875 30.246093-27.390625 13.90625 1.308594 24.796876 14.042968 24.796876 28.996094v45.375c0 20.183593 16.417968 36.609374 36.605468 36.609374 20.183594 0 36.605469-16.421874 36.605469-36.609374v-46.980469c0-57.214844-47.894531-103.480469-105.789063-100.609375zm97.789063 147.589844c0 15.773437-12.832031 28.609374-28.605469 28.609374-15.769531 0-28.605468-12.832031-28.605468-28.609374v-45.371094c0-19.035156-14.082032-35.269532-32.054688-36.960938-21.082031-1.976562-38.988281 14.621094-38.988281 35.355469v56.296875c0 52.679688-44.191407 95.1875-97.394531 92.625-49.390626-2.445312-88.078126-44.066406-88.078126-94.757812v-52.558594c0-19.035156-14.078124-35.269532-32.050781-36.960938-1.171875-.105468-2.332031-.164062-3.480469-.164062-19.582031 0-35.515624 15.933594-35.515624 35.519531v27.65625c0 15.773437-12.832032 28.609375-28.605469 28.609375-15.777344 0-28.609375-12.832031-28.609375-28.609375v-25.519531c0-50.695313 38.691406-92.316406 88.082031-94.75 53.167969-2.699219 97.390625 39.941406 97.390625 92.617187v54.691407c0 19.035156 14.078125 35.269531 32.050781 36.964843 21.140625 1.96875 38.996094-14.621093 38.996094-35.355469v-54.175781c0-50.691406 38.6875-92.3125 88.078125-94.75 1.5625-.082031 3.117188-.117187 4.660156-.117187 51.128906 0 92.734375 41.597656 92.734375 92.734375v46.980469zm0 0"/><path d="m259.644531 219.835938c-3.617187 1.789062-7.417969 3.261718-11.292969 4.390624-2.121093.617188-3.339843 2.835938-2.722656 4.960938.507813 1.746094 2.101563 2.882812 3.839844 2.882812.367188 0 .742188-.050781 1.117188-.160156 4.324218-1.257812 8.566406-2.90625 12.601562-4.902344 1.980469-.980468 2.792969-3.378906 1.8125-5.359374-.976562-1.976563-3.363281-2.789063-5.355469-1.8125zm0 0"/><path d="m353.351562 23.886719c-41.242187 2.035156-73.546874 36.945312-73.546874 79.476562v54.167969c0 14.253906-6.070313 27.949219-16.640626 37.578125-10.710937 9.75-24.601562 14.355469-39.078124 13.003906-25.746094-2.421875-45.910157-25.347656-45.910157-52.191406v-54.691406c0-21.378907-8.550781-41.296875-24.082031-56.078125-15.519531-14.773438-35.867188-22.3125-57.257812-21.269532-41.242188 2.035157-73.546876 36.949219-73.546876 79.480469v25.523438c0 7.339843 5.976563 13.316406 13.316407 13.316406 7.339843 0 13.316406-5.976563 13.316406-13.316406v-27.65625c0-14.25 6.066406-27.941407 16.636719-37.570313 10.714844-9.753906 24.585937-14.378906 39.082031-13.007812 25.738281 2.421875 45.902344 25.34375 45.902344 52.183594v52.558593c0 42.53125 32.304687 77.445313 73.546875 79.484375 1.296875.066406 2.589844.097656 3.875.097656.324218 0 .648437 0 .972656-.003906 2.207031-.027344 3.976562-1.839844 3.945312-4.054687-.027343-2.207031-1.757812-3.789063-4.046874-3.945313-1.445313.011719-2.890626-.011718-4.351563-.082031-36.972656-1.832031-65.9375-33.230469-65.9375-71.496094v-52.558593c0-30.925782-23.347656-57.34375-53.15625-60.152344-16.742187-1.574219-32.8125 3.773437-45.210937 15.054687-12.238282 11.140625-19.253907 26.992188-19.253907 43.488281v27.65625c0 2.933594-2.386719 5.316407-5.316406 5.316407-2.933594 0-5.316406-2.382813-5.316406-5.316407v-25.523437c0-38.261719 28.964843-69.664063 65.941406-71.488281 19.171875-.953125 37.429687 5.828125 51.34375 19.074218 13.929687 13.253907 21.601563 31.113282 21.601563 50.28125v54.6875c0 30.925782 23.347656 57.347657 53.15625 60.152344 16.769531 1.589844 32.816406-3.765625 45.210937-15.050781 12.242187-11.140625 19.257813-26.992187 19.257813-43.492187v-54.160157c0-38.257812 28.964843-69.664062 65.9375-71.488281 19.105468-.972656 37.425781 5.824219 51.351562 19.070312 13.925781 13.257813 21.597656 31.117188 21.597656 50.285157v46.980469c0 2.933593-2.386718 5.316406-5.316406 5.316406-2.925781 0-5.316406-2.382813-5.316406-5.316406v-45.371094c0-30.925782-23.347656-57.34375-53.15625-60.152344-16.777344-1.566406-32.8125 3.773438-45.210938 15.054688-12.238281 11.140624-19.253906 26.992187-19.253906 43.488281v56.296875c0 20.964844-9.367188 40.609375-25.691406 53.886718-1.714844 1.398438-1.96875 3.917969-.578125 5.628907 1.390625 1.710937 3.910156 1.976562 5.625.582031 18.203125-14.808594 28.640625-36.714844 28.640625-60.09375v-56.300781c0-14.25 6.066406-27.941407 16.636718-37.570313 10.71875-9.753906 24.59375-14.367187 39.082032-13.007812 25.742187 2.421875 45.90625 25.34375 45.90625 52.183594v45.375c0 7.339843 5.972656 13.316406 13.316406 13.316406s13.316406-5.976563 13.316406-13.316406v-46.980469c0-21.378907-8.554687-41.300781-24.082031-56.082031-15.519531-14.769532-35.867187-22.335938-57.257813-21.261719zm0 0"/></g></svg>